<svg xmlns="http://www.w3.org/2000/svg" xmlns:xlink="http://www.w3.org/1999/xlink" xml:space="preserve" version="1.1" style="shape-rendering:geometricPrecision;text-rendering:geometricPrecision;image-rendering:optimizeQuality;" viewBox="0 0 60000 75000" x="0px" y="0px" fill-rule="evenodd" clip-rule="evenodd"><defs><style type="text/css">
   
    .fil0 {fill:black;fill-rule:nonzero}
   
  </style></defs><g><path class="fil0" d="M51001 25711l0 0c-1224,618 -2279,1270 -2997,1825 -480,372 -799,641 -879,746 3,18 6,35 7,53 105,11 525,-88 1144,-263 873,-247 2025,-709 3247,-1326l0 0c1224,-618 2279,-1270 2997,-1825 548,-424 887,-715 898,-781l-10 -15c-70,-26 -503,74 -1160,260 -873,247 -2025,709 -3247,1326zm-8904 19477c-15,-137 84,-260 221,-275 137,-15 260,84 275,221l476 4180c15,137 -84,260 -221,275 -137,15 -260,-84 -275,-221l-476 -4180zm-12270 -31460c0,-138 112,-250 250,-250 138,0 250,112 250,250l0 992c0,138 -112,250 -250,250 -138,0 -250,-112 -250,-250l0 -992zm1524 -2291l-934 893 934 893 0 -1787zm-1294 1238l-1269 1214 0 2849c0,138 -112,250 -250,250 -138,0 -250,-112 -250,-250l0 -6458c-902,-217 -2303,-642 -3575,-1407 -1264,-760 -2397,-1852 -2812,-3404l-8253 3143c1682,3434 2132,7565 2582,11696 29,263 57,526 102,930 2,21 3,41 2,61 13,645 27,1290 41,1935 223,10301 445,20551 -1536,31413 2502,1598 7589,1404 11779,1245 1228,-47 2380,-91 3382,-86 1002,-5 2154,39 3382,86 4190,160 9277,353 11779,-1245 -1981,-10862 -1759,-21112 -1536,-31413 14,-645 28,-1290 41,-1935 -1,-20 0,-40 2,-61 45,-404 73,-667 102,-930 450,-4131 900,-8262 2582,-11696l-8253 -3143c-415,1551 -1549,2643 -2812,3404 -1208,727 -2534,1147 -3437,1373l0 6492c0,138 -112,250 -250,250 -138,0 -250,-112 -250,-250l0 -2826 -1294 -1238zm-1269 525l909 -870 -909 -870 0 1739zm1269 -1214l1294 -1238 0 -439c-125,-38 -229,-136 -268,-268l0 0 -162 -537 -559 1185c-94,199 -332,285 -531,191 -88,-41 -153,-110 -191,-192l-559 -1184 -162 537 0 0c-24,79 -70,146 -131,196l0 5 0 531 1269 1214zm676 -3687c45,-58 106,-104 179,-131 358,-243 867,-499 1311,-724 306,-155 579,-293 708,-371 830,-504 1464,-955 1929,-1500 334,-391 587,-838 771,-1400 -833,213 -1661,370 -2488,477 -1046,136 -2092,194 -3143,186 -1052,8 -2097,-50 -3143,-186 -827,-108 -1655,-265 -2488,-477 185,562 437,1009 771,1400 466,544 1099,996 1929,1500 129,78 402,216 708,371 444,224 952,481 1311,724 73,27 134,73 179,131 73,58 134,114 181,168 30,31 56,68 76,109l475 1008 475 -1008 0 0c43,-86 134,-180 256,-277zm781 406l225 746c848,-217 2051,-608 3140,-1263 1168,-703 2207,-1714 2504,-3148 -179,-208 -389,-418 -617,-605 -100,-82 -204,-159 -309,-229 -221,768 -544,1365 -990,1887 -529,619 -1222,1116 -2123,1662 -172,105 -450,245 -762,402 -369,186 -791,400 -1068,548zm4552 -5475c65,-22 138,-28 210,-13 32,7 62,17 91,31 316,140 623,341 905,573 289,237 554,508 776,774l9005 3429 0 0c7,3 15,6 22,9 2157,980 3713,4568 5389,8434 678,1563 1376,3172 2135,4659l2 4 2 5 0 0c463,907 949,1768 1467,2545 23,29 44,60 61,93 221,437 -224,1085 -1122,1780 -756,585 -1857,1267 -3125,1907l0 -1 0 0 0 1c-1269,640 -2472,1122 -3391,1382 -1091,309 -1877,282 -2097,-156 -38,-75 -56,-156 -56,-243l-946 -2509c-10,-21 -18,-43 -25,-66l-948 -2515c-223,10306 -438,20563 1572,31406 30,164 -45,323 -177,408 -2648,1895 -8041,1690 -12461,1522 -1093,-42 -2126,-81 -3034,-86 -16,2 -33,3 -50,3 -89,-1 -179,-2 -270,-3 -92,0 -182,1 -270,3 -17,0 -33,-1 -50,-3 -907,5 -1940,44 -3034,86 -4421,168 -9814,374 -12461,-1522 -132,-85 -207,-244 -177,-408 2010,-10843 1796,-21100 1572,-31406l-948 2515c-7,22 -15,44 -25,66l-946 2509c0,87 -18,168 -56,243 -221,437 -1006,465 -2097,156 -919,-260 -2122,-742 -3391,-1382l0 0c-1268,-640 -2369,-1322 -3125,-1907 -898,-695 -1343,-1343 -1122,-1780 17,-34 37,-65 61,-93 515,-773 999,-1629 1460,-2530 2,-5 5,-10 7,-15l2 -5 0 0c760,-1488 1459,-3099 2137,-4663 1670,-3852 3221,-7428 5366,-8423 14,-8 29,-14 45,-20l9005 -3429c221,-266 486,-537 776,-774 282,-231 589,-433 905,-573 28,-13 59,-24 91,-31 73,-15 145,-9 210,13 1015,294 2020,500 3025,631 1012,132 2022,188 3037,180l6 0c1015,8 2025,-48 3037,-180 1004,-131 2010,-337 3025,-631zm18899 20198c-373,-612 -730,-1262 -1073,-1935l0 0 -1 -1c-26,-15 -364,66 -901,212 -720,195 -1673,569 -2704,1072 -225,110 -424,210 -594,298 -1144,597 -2106,1218 -2758,1749 -512,417 -818,700 -816,766l724 1920c182,-195 409,-398 676,-605 756,-585 1857,-1267 3125,-1907l0 1 0 0 0 -1c1269,-640 2472,-1122 3391,-1382 343,-97 656,-161 931,-189zm-1426 -2641c-635,-1303 -1228,-2670 -1806,-4004 -1515,-3494 -2929,-6753 -4652,-7840 -1629,3314 -2072,7382 -2515,11450 -34,310 -68,620 -92,839l1340 3554c166,-187 373,-381 617,-580 689,-560 1699,-1213 2893,-1837 236,-123 440,-227 612,-311 1076,-525 2079,-917 2844,-1125 278,-75 533,-125 759,-146zm-25051 -12081c-277,-148 -699,-361 -1068,-548 -312,-157 -589,-298 -762,-402 -901,-546 -1594,-1043 -2123,-1662 -446,-522 -769,-1119 -990,-1887 -105,70 -209,147 -309,229 -228,187 -438,397 -617,605 298,1433 1336,2445 2504,3148 1089,655 2292,1045 3140,1263l225 -746zm-15566 237c-1723,1087 -3136,4346 -4652,7840 -579,1334 -1172,2702 -1806,4004 226,21 481,71 759,146 765,208 1768,600 2844,1125 172,84 376,188 612,311 1194,623 2204,1276 2893,1837 244,199 451,393 617,580l1340 -3554c-24,-218 -58,-529 -92,-839 -443,-4068 -886,-8136 -2515,-11450zm-6821 12572c-340,665 -693,1308 -1063,1914 275,28 588,92 931,189 919,260 2122,742 3391,1382l0 0c1268,640 2369,1322 3125,1907 268,207 495,410 676,605l700 -1857c5,-15 10,-30 17,-44l7 -19c1,-66 -305,-350 -816,-766 -652,-531 -1615,-1152 -2758,-1749 -170,-89 -369,-188 -594,-298 -1030,-503 -1984,-877 -2704,-1072 -538,-146 -876,-227 -901,-212l-1 1c-4,7 -7,14 -11,20zm-1507 2612l-10 15c11,66 350,357 898,781 718,555 1773,1208 2997,1825l0 0c1222,617 2374,1078 3247,1326 620,176 1039,274 1144,263 1,-18 3,-35 7,-53 -79,-106 -399,-375 -879,-746 -718,-555 -1773,-1208 -2997,-1825l0 0c-1222,-617 -2374,-1078 -3247,-1326 -657,-186 -1090,-286 -1160,-260z"/></g><text x="0" y="60015" fill="#000000" font-size="5px" font-weight="bold" font-family="'Helvetica Neue', Helvetica, Arial-Unicode, Arial, Sans-serif">Created by Olena Panasovska</text><text x="0" y="60020" fill="#000000" font-size="5px" font-weight="bold" font-family="'Helvetica Neue', Helvetica, Arial-Unicode, Arial, Sans-serif">from the Noun Project</text></svg>