<svg xmlns:dc="http://purl.org/dc/elements/1.1/" xmlns:cc="http://creativecommons.org/ns#" xmlns:rdf="http://www.w3.org/1999/02/22-rdf-syntax-ns#" xmlns:svg="http://www.w3.org/2000/svg" xmlns="http://www.w3.org/2000/svg" xmlns:sodipodi="http://sodipodi.sourceforge.net/DTD/sodipodi-0.dtd" xmlns:inkscape="http://www.inkscape.org/namespaces/inkscape" version="1.1" x="0px" y="0px" viewBox="0 0 100 125"><g transform="translate(0,-952.36218)"><path style="text-indent:0;text-transform:none;direction:ltr;block-progression:tb;baseline-shift:baseline;color:#000000;enable-background:accumulate;" d="m 8.000351,961.36215 c -1.6569,0 -3,1.34315 -3,3 0,1.65685 1.3431,3 3,3 l 9.9688,0 c 4.9652,12.29749 9.8559,24.61746 14.7812,36.93745 l -4.5312,10.9063 c -0.3796,0.9093 -0.2728,2.0057 0.2751,2.8246 0.548,0.8189 1.5208,1.3358 2.5061,1.3317 l 50,0 c 1.5849,0.022 3.0427,-1.4149 3.0427,-3 0,-1.5851 -1.4578,-3.0224 -3.0427,-3 l -45.5,0 2.5938,-6.1876 48.1562,-3.8437 c 1.2605,-0.099 2.4015,-1.0809 2.6875,-2.3125 l 6.000004,-26 c 0.3924,-1.75123 -1.1429,-3.6621 -2.9375,-3.65625 l -65.968804,0 -3.25,-8.125 c -0.445,-1.09982 -1.5948,-1.87497 -2.7812,-1.875 z m 20.4375,16 59.7813,0 -4.6563,20.18746 -45.5937,3.62499 z m 12.5625,46.00005 c -5.4873,0 -10,4.5126 -10,10 0,5.4873 4.5127,10 10,10 5.4873,0 10,-4.5127 10,-10 0,-5.4873 -4.5127,-10 -10,-10 z m 30,0 c -5.4873,0 -10,4.5127 -10,10 0,5.4873 4.5127,10 10,10 5.4873,0 10,-4.5127 10,-10 0,-5.4874 -4.5127,-10 -10,-10 z m -30,6 c 2.2447,0 4,1.7553 4,4 0,2.2447 -1.7553,4 -4,4 -2.2445,0 -4,-1.7554 -4,-4 0,-2.2446 1.7555,-4 4,-4 z m 30,0 c 2.2445,0 4,1.7554 4,4 0,2.2446 -1.7555,4 -4,4 -2.2447,0 -4,-1.7553 -4,-4 0,-2.2447 1.7553,-4 4,-4 z" fill="#000000" fill-opacity="1" stroke="none" marker="none" visibility="visible" display="inline" overflow="visible"/></g><text x="0" y="115" fill="#000000" font-size="5px" font-weight="bold" font-family="'Helvetica Neue', Helvetica, Arial-Unicode, Arial, Sans-serif">Created by Alfa Design</text><text x="0" y="120" fill="#000000" font-size="5px" font-weight="bold" font-family="'Helvetica Neue', Helvetica, Arial-Unicode, Arial, Sans-serif">from the Noun Project</text></svg>